# xmcd CD database file
#
# Track frame offsets:
#	150
#	12055
#	25505
#	39832
#	52655
#	62787
#	78885
#	91327
#	101870
#	115687
#	127845
#	139977
#
# Disc length: 2093 seconds
#
# Revision: 0
# Processed by: cddbd v1.5.2PL0 Copyright (c) Steve Scherf et al.
# Submitted via: CdAid 2001.05.15.01
#
DISCID=84082b0c
DTITLE=Various Artist - Deutsche Country and Truckersongs
DYEAR=1900
DGENRE=Country
TTITLE0=Mein Diesel Und Ich
TTITLE1=Keine Eile
TTITLE2=Countrytime
TTITLE3=Das Ist Schön
TTITLE4=Es Ist Ein Weiter Weg Bis Nach Hause
TTITLE5=Westernholiday
TTITLE6=Tramps Der Autobahn
TTITLE7=Cowboys Aus Dem Westen
TTITLE8=Nashville Melodie
TTITLE9=Ich Brauche Keine Ranch
TTITLE10=Ein Sterischer Cowboy
TTITLE11=Die Letzte Fuhre
EXTD=
EXTT0=
EXTT1=
EXTT2=
EXTT3=
EXTT4=
EXTT5=
EXTT6=
EXTT7=
EXTT8=
EXTT9=
EXTT10=
EXTT11=
PLAYORDER=
